<svg version="1.1" xmlns="http://www.w3.org/2000/svg" viewBox="0 0 644 314.43258423395446">
  <defs>
    <style>
      @font-face {
        font-family: "Virgil";
        src: url("https://excalidraw.com/FG_Virgil.ttf");
      }
      @font-face {
        font-family: "Cascadia";
        src: url("https://excalidraw.com/Cascadia.ttf");
      }
    </style>
  </defs>
  <rect x="0" y="0" width="644" height="314.43258423395446" fill="#ffffff"></rect><g transform="translate(10 10)"><path d="M70.32380058657367 0.6887197076215443 C80.89220427462126 -1.793021208638688, 93.74080012826496 -0.2923092616315941, 104.5058452224767 3.4173429281068906 C115.27089031668842 7.126995117845375, 126.81073794177034 15.078222343400839, 134.914071151844 22.946632846052452 C143.01740436191767 30.815043348704066, 149.18019932317034 40.10207959296255, 153.1258444829187 50.627805944016565 C157.07148964266705 61.153532295070576, 159.7838648357641 74.91224635164951, 158.5879421103341 86.1009909523765 C157.3920193849041 97.2897355531035, 151.7382872136983 108.2078472323445, 145.95030813033875 117.76027354837855 C140.1623290469792 127.3126998644126, 132.98794486662678 136.8919606075277, 123.86006761017677 143.4155488485808 C114.73219035372676 149.93913708963393, 102.37122669908499 155.07162233101383, 91.18304459163868 156.90180299469733 C79.99486248419237 158.73198365838084, 67.48341638514212 157.83637447839723, 56.73097496549887 154.39663283068185 C45.97853354585563 150.95689118296647, 35.15101352918862 143.94129576547945, 26.668396073779228 136.2633531084051 C18.185778618369838 128.58541045133077, 10.40704803429648 118.60355731810606, 5.835270233042536 108.32897688823586 C1.2634924317885927 98.05439645836566, -1.4441835313348172 85.72874053125095, -0.7622707337444297 74.6158705291839 C-0.08035793615404196 63.50300052711683, 4.2314734958800715 51.66032662959938, 9.926747018584862 41.651756875833506 C15.622020541289654 31.64318712206763, 24.291505708247705 21.30483859980348, 33.40937040248431 14.564452006588638 C42.52723509672092 7.824065413373794, 56.74582000032966 3.651900022508066, 64.63393518400453 1.209437316544438 C72.5220503676794 -1.2330253894191898, 76.28116326302252 -0.4515985933328229, 80.73806150453352 -0.09032422919312921 C85.19495974604452 0.27095013494656445, 91.37882406010631 1.9886391200107572, 91.37532463307052 3.3770835013826 M54.14046634268571 3.547298945395454 C64.04840300688211 -1.1463510970432287, 76.77651567800753 -0.17789514980800192, 87.96790937371543 1.2120859369715902 C99.15930306942333 2.6020670237511823, 111.95486887695041 6.045274702291771, 121.28882851693314 11.887185466073007 C130.62278815691585 17.729096229854242, 137.98186644712158 26.583724320608326, 143.97166721361174 36.263550519659 C149.9614679801019 45.94337671870967, 155.78883672803707 58.94317930785187, 157.22763311587406 69.96614266037705 C158.66642950371104 80.98910601290223, 156.22627889225018 91.74343953179103, 152.60444554063366 102.40133063481005 C148.98261218901715 113.05922173782908, 143.24977354270715 125.81128605729315, 135.49663300617502 133.9134892784912 C127.74349246964287 142.01569249968927, 116.54617364381606 147.4274454136646, 106.08560232144083 151.0145499619984 C95.6250309990656 154.6016545103322, 83.58773314269894 155.97385056925282, 72.73320507192363 155.43611656849407 C61.87867700114834 154.89838256773533, 50.712690394506765 153.2467594519312, 40.95843389678905 147.78814595744598 C31.20417739907134 142.32953246296074, 20.922591665621418 132.26604520484784, 14.207666085617348 122.68443560158273 C7.492740505613276 113.10282599831761, 2.6415328310271606 101.5086090722046, 0.6688804167646225 90.29848833785528 C-1.3037719974979158 79.08836760350594, -0.8101227578673815 66.10546588643332, 2.371751600042117 55.42371119548673 C5.553625957951615 44.74195650454015, 12.183444478338266 34.645986829447075, 19.760126564221615 26.20796019217577 C27.336808650104963 17.769933554904462, 42.33795476746427 8.603191203561412, 47.83184411534221 4.795551371858878 C53.325733463220146 0.9879115401563432, 51.49461442406306 3.356621436615557, 52.72346265148926 3.362121201960562 C53.952310878915455 3.3676209673055673, 54.78371006367351 3.462966509948049, 55.2049334798994 4.828549963928907" style="stroke: rgb(0, 0, 0); stroke-width: 1; fill: none;"></path></g><g transform="translate(356 23)"><path d="M144.30416272031815 0.70924984761308 C159.23541385930457 -0.6735904791955629, 176.82817449487612 4.767499487592336, 191.3120040806001 10.099706220946587 C205.79583366632409 15.431912954300838, 219.50355738699358 23.255922524472666, 231.20714023466206 32.70249024773858 C242.91072308233055 42.149057971004495, 253.90487154434686 54.44031697663034, 261.533501166611 66.77911256054207 C269.1621307888752 79.1179081444538, 274.50790106294227 92.78582331435544, 276.978917968247 106.73526375120898 C279.44993487355174 120.68470418806251, 279.1196712439981 136.6227165003016, 276.3596025984394 150.47575518166326 C273.5995339528807 164.3287938630249, 268.0761090180096 177.574457548451, 260.41850609489467 189.85349583937895 C252.76090317177972 202.1325341303069, 242.23384240510373 214.70537267201544, 230.41398505974962 224.149984927231 C218.5941277143955 233.59459718244656, 204.0820172646126 241.321749313486, 189.49936202276996 246.52116937067228 C174.9167067809273 251.72058942785856, 158.32458287839256 255.02833134737057, 142.91805360869373 255.34650527034864 C127.51152433899487 255.66467919332672, 111.97276591026024 252.98450683296056, 97.06018640457688 248.43021290854068 C82.14760689889353 243.8759189841208, 66.00547805726312 236.65320999704014, 53.44257657459363 228.02074172382942 C40.87967509192414 219.3882734506187, 30.000109748819902 208.35559786272714, 21.682777508559965 196.6354032692763 C13.365445268300027 184.91520867582548, 7.139573677555482 171.63360271552196, 3.5385831330339954 157.69957416312442 C-0.062407411487491515 143.7655456107269, -1.6701485574343071 127.11126032237334, 0.07683424143104389 113.0312319548911 C1.823817040296395 98.95120358740886, 7.149566998557167 85.89838762208781, 14.020479926226102 73.219403958231 C20.891392853895038 60.54042029437419, 30.334061671835997 47.26117119530346, 41.30231180744465 36.95732997175024 C52.27056194305331 26.65348874819702, 65.80660493282504 17.291879477280837, 79.82998073987805 11.39635661691166 C93.85335654693107 5.500833756542484, 111.58884137437686 3.2951147530838893, 125.44256664976277 1.5841928095351818 C139.29629192514867 -0.12672913401352548, 154.3259598730582 0.014162812193302843, 162.9523323921935 1.130824955619417 C171.57870491132883 2.2474870990455313, 177.87582397032935 6.190958341068724, 177.20080176457475 8.284165670091866 M107.57966215804205 2.4708503493592957 C121.60318551050764 -2.6574018121698826, 139.17289256954592 -1.597520029273132, 154.74883249225493 0.07022415870254406 C170.32477241496395 1.73796834667822, 187.22767251256403 6.082116058925848, 201.03530169429615 12.477315477213352 C214.84293087602828 18.872514895500856, 227.05584204624196 28.447062737802504, 237.59460758264777 38.44142066842757 C248.13337311905357 48.43577859905263, 257.54203307640665 59.69676237973029, 264.267894912731 72.44346306096375 C270.9937567490553 85.19016374219721, 276.2769681108588 100.80658660167904, 277.94977860059373 114.92162475582835 C279.6225890903287 129.03666290997765, 278.33121237075744 143.35366720737125, 274.3047578511406 157.1336919858596 C270.2783033315238 170.91371676434795, 262.3463595960151 185.4447951290879, 253.79105148289284 197.60177342675846 C245.23574336977057 209.758751724429, 235.4169477187433 221.68449521612632, 222.97290917240707 230.07556177188295 C210.52887062607084 238.46662832763957, 194.26050779489904 243.6167565943594, 179.1268202048754 247.94817276129817 C163.99313261485176 252.27958892823693, 147.6975559211207 256.57693311104305, 132.1707836322652 256.06405877351557 C116.6440113434097 255.5511844359881, 99.98523179330708 250.40067648339476, 85.96618647174239 244.87092673613324 C71.9471411501777 239.34117698887172, 59.56514697865478 231.95323412165766, 48.056511702877046 222.88556028994645 C36.54787642709931 213.81788645823525, 24.79588872564684 202.96313698333822, 16.914374817075966 190.464883745866 C9.032860908505093 177.96663050839376, 3.2423927669600965 162.16683642651458, 0.767428251451804 147.89604086511306 C-1.7075362640564884 133.62524530371155, -0.9121525466611615 118.79262707025983, 2.064587724026211 104.84011037745697 C5.041327994713583 90.8875936846541, 11.219676358828618 76.43070638224725, 18.62786987557604 64.18094070829588 C26.03606339232346 51.93117503434451, 35.02109324272058 40.3493383800824, 46.51374882451073 31.34151633374877 C58.006404406300874 22.333694287415142, 77.39087966666042 14.776300458303528, 87.5838033663169 10.134008430294088 C97.77672706597338 5.491716402284648, 104.47957401378905 4.350184086506087, 107.67129102244957 3.487764165692127 C110.86300803111008 2.6253442448781663, 106.20536234807713 2.7043941337869035, 106.73410541828001 4.959488905410325" style="stroke: rgb(0, 0, 0); stroke-width: 2; fill: none;"></path></g><g transform="translate(107 168)"></g><g transform="translate(142 271)"></g><g transform="translate(306 304)"></g><g transform="translate(45 71)"><text x="0" y="25" font-family="Virgil" font-size="28px" fill="#000000">Design</text></g><g transform="translate(444.5 128)"><text x="0" y="25" font-family="Virgil" font-size="28px" fill="#000000">Develop</text></g></svg>